<svg width="329" height="249" viewBox="0 0 329 249" fill="none" xmlns="http://www.w3.org/2000/svg">
<rect x="0.0507812" y="16.0869" width="22.7504" height="22.7504" rx="5.09665" transform="rotate(-45 0.0507812 16.0869)" fill="url(#paint0_radial_1312_1239)" fill-opacity="0.2"/>
<rect x="42.4258" y="16.0869" width="22.7504" height="22.7504" rx="5.09665" transform="rotate(-45 42.4258 16.0869)" fill="url(#paint1_radial_1312_1239)" fill-opacity="0.2"/>
<rect x="84.7852" y="16.0869" width="22.7504" height="22.7504" rx="5.09665" transform="rotate(-45 84.7852 16.0869)" fill="url(#paint2_radial_1312_1239)" fill-opacity="0.2"/>
<rect x="127.16" y="16.0869" width="22.7504" height="22.7504" rx="5.09665" transform="rotate(-45 127.16 16.0869)" fill="url(#paint3_radial_1312_1239)" fill-opacity="0.2"/>
<rect x="169.527" y="16.0869" width="22.7504" height="22.7504" rx="5.09665" transform="rotate(-45 169.527 16.0869)" fill="url(#paint4_radial_1312_1239)" fill-opacity="0.2"/>
<rect x="211.895" y="16.0869" width="22.7504" height="22.7504" rx="5.09665" transform="rotate(-45 211.895 16.0869)" fill="url(#paint5_radial_1312_1239)" fill-opacity="0.2"/>
<rect x="254.262" y="16.0869" width="22.7504" height="22.7504" rx="5.09665" transform="rotate(-45 254.262 16.0869)" fill="url(#paint6_radial_1312_1239)" fill-opacity="0.2"/>
<rect x="296.629" y="16.0869" width="22.7504" height="22.7504" rx="5.09665" transform="rotate(-45 296.629 16.0869)" fill="url(#paint7_radial_1312_1239)" fill-opacity="0.2"/>
<rect x="0.0507812" y="102.73" width="22.7504" height="22.7504" rx="5.09665" transform="rotate(-45 0.0507812 102.73)" fill="url(#paint8_radial_1312_1239)" fill-opacity="0.2"/>
<rect x="42.4258" y="102.73" width="22.7504" height="22.7504" rx="5.09665" transform="rotate(-45 42.4258 102.73)" fill="url(#paint9_radial_1312_1239)" fill-opacity="0.2"/>
<rect x="84.7852" y="102.73" width="22.7504" height="22.7504" rx="5.09665" transform="rotate(-45 84.7852 102.73)" fill="url(#paint10_radial_1312_1239)" fill-opacity="0.2"/>
<rect x="127.16" y="102.73" width="22.7504" height="22.7504" rx="5.09665" transform="rotate(-45 127.16 102.73)" fill="url(#paint11_radial_1312_1239)" fill-opacity="0.2"/>
<rect x="169.527" y="102.73" width="22.7504" height="22.7504" rx="5.09665" transform="rotate(-45 169.527 102.73)" fill="url(#paint12_radial_1312_1239)" fill-opacity="0.2"/>
<rect x="211.895" y="102.73" width="22.7504" height="22.7504" rx="5.09665" transform="rotate(-45 211.895 102.73)" fill="url(#paint13_radial_1312_1239)" fill-opacity="0.2"/>
<rect x="254.262" y="102.73" width="22.7504" height="22.7504" rx="5.09665" transform="rotate(-45 254.262 102.73)" fill="url(#paint14_radial_1312_1239)" fill-opacity="0.2"/>
<rect x="296.629" y="102.73" width="22.7504" height="22.7504" rx="5.09665" transform="rotate(-45 296.629 102.73)" fill="url(#paint15_radial_1312_1239)" fill-opacity="0.2"/>
<rect x="0.0507812" y="189.373" width="22.7504" height="22.7504" rx="5.09665" transform="rotate(-45 0.0507812 189.373)" fill="url(#paint16_radial_1312_1239)" fill-opacity="0.2"/>
<rect x="42.4258" y="189.373" width="22.7504" height="22.7504" rx="5.09665" transform="rotate(-45 42.4258 189.373)" fill="url(#paint17_radial_1312_1239)" fill-opacity="0.2"/>
<rect x="84.7852" y="189.373" width="22.7504" height="22.7504" rx="5.09665" transform="rotate(-45 84.7852 189.373)" fill="url(#paint18_radial_1312_1239)" fill-opacity="0.2"/>
<rect x="127.16" y="189.373" width="22.7504" height="22.7504" rx="5.09665" transform="rotate(-45 127.16 189.373)" fill="url(#paint19_radial_1312_1239)" fill-opacity="0.2"/>
<rect x="169.527" y="189.373" width="22.7504" height="22.7504" rx="5.09665" transform="rotate(-45 169.527 189.373)" fill="url(#paint20_radial_1312_1239)" fill-opacity="0.2"/>
<rect x="211.895" y="189.373" width="22.7504" height="22.7504" rx="5.09665" transform="rotate(-45 211.895 189.373)" fill="url(#paint21_radial_1312_1239)" fill-opacity="0.2"/>
<rect x="254.262" y="189.373" width="22.7504" height="22.7504" rx="5.09665" transform="rotate(-45 254.262 189.373)" fill="url(#paint22_radial_1312_1239)" fill-opacity="0.2"/>
<rect x="296.629" y="189.373" width="22.7504" height="22.7504" rx="5.09665" transform="rotate(-45 296.629 189.373)" fill="url(#paint23_radial_1312_1239)" fill-opacity="0.2"/>
<rect x="0.0507812" y="59.4087" width="22.7504" height="22.7504" rx="5.09665" transform="rotate(-45 0.0507812 59.4087)" fill="url(#paint24_radial_1312_1239)" fill-opacity="0.2"/>
<rect x="42.4258" y="59.4087" width="22.7504" height="22.7504" rx="5.09665" transform="rotate(-45 42.4258 59.4087)" fill="url(#paint25_radial_1312_1239)" fill-opacity="0.2"/>
<rect x="84.7852" y="59.4087" width="22.7504" height="22.7504" rx="5.09665" transform="rotate(-45 84.7852 59.4087)" fill="url(#paint26_radial_1312_1239)" fill-opacity="0.2"/>
<rect x="127.16" y="59.4087" width="22.7504" height="22.7504" rx="5.09665" transform="rotate(-45 127.16 59.4087)" fill="url(#paint27_radial_1312_1239)" fill-opacity="0.2"/>
<rect x="169.527" y="59.4087" width="22.7504" height="22.7504" rx="5.09665" transform="rotate(-45 169.527 59.4087)" fill="url(#paint28_radial_1312_1239)" fill-opacity="0.2"/>
<rect x="211.895" y="59.4087" width="22.7504" height="22.7504" rx="5.09665" transform="rotate(-45 211.895 59.4087)" fill="url(#paint29_radial_1312_1239)" fill-opacity="0.2"/>
<rect x="254.262" y="59.4087" width="22.7504" height="22.7504" rx="5.09665" transform="rotate(-45 254.262 59.4087)" fill="url(#paint30_radial_1312_1239)" fill-opacity="0.2"/>
<rect x="296.629" y="59.4087" width="22.7504" height="22.7504" rx="5.09665" transform="rotate(-45 296.629 59.4087)" fill="url(#paint31_radial_1312_1239)" fill-opacity="0.2"/>
<rect x="0.0507812" y="146.052" width="22.7504" height="22.7504" rx="5.09665" transform="rotate(-45 0.0507812 146.052)" fill="url(#paint32_radial_1312_1239)" fill-opacity="0.2"/>
<rect x="42.4258" y="146.052" width="22.7504" height="22.7504" rx="5.09665" transform="rotate(-45 42.4258 146.052)" fill="url(#paint33_radial_1312_1239)" fill-opacity="0.2"/>
<rect x="84.7852" y="146.052" width="22.7504" height="22.7504" rx="5.09665" transform="rotate(-45 84.7852 146.052)" fill="url(#paint34_radial_1312_1239)" fill-opacity="0.2"/>
<rect x="127.16" y="146.052" width="22.7504" height="22.7504" rx="5.09665" transform="rotate(-45 127.16 146.052)" fill="url(#paint35_radial_1312_1239)" fill-opacity="0.2"/>
<rect x="169.527" y="146.052" width="22.7504" height="22.7504" rx="5.09665" transform="rotate(-45 169.527 146.052)" fill="url(#paint36_radial_1312_1239)" fill-opacity="0.2"/>
<rect x="211.895" y="146.052" width="22.7504" height="22.7504" rx="5.09665" transform="rotate(-45 211.895 146.052)" fill="url(#paint37_radial_1312_1239)" fill-opacity="0.2"/>
<rect x="254.262" y="146.052" width="22.7504" height="22.7504" rx="5.09665" transform="rotate(-45 254.262 146.052)" fill="url(#paint38_radial_1312_1239)" fill-opacity="0.2"/>
<rect x="296.629" y="146.052" width="22.7504" height="22.7504" rx="5.09665" transform="rotate(-45 296.629 146.052)" fill="url(#paint39_radial_1312_1239)" fill-opacity="0.2"/>
<rect x="0.0507812" y="232.695" width="22.7504" height="22.7504" rx="5.09665" transform="rotate(-45 0.0507812 232.695)" fill="url(#paint40_radial_1312_1239)" fill-opacity="0.2"/>
<rect x="42.4258" y="232.695" width="22.7504" height="22.7504" rx="5.09665" transform="rotate(-45 42.4258 232.695)" fill="url(#paint41_radial_1312_1239)" fill-opacity="0.2"/>
<rect x="84.7852" y="232.695" width="22.7504" height="22.7504" rx="5.09665" transform="rotate(-45 84.7852 232.695)" fill="url(#paint42_radial_1312_1239)" fill-opacity="0.2"/>
<rect x="127.16" y="232.695" width="22.7504" height="22.7504" rx="5.09665" transform="rotate(-45 127.16 232.695)" fill="url(#paint43_radial_1312_1239)" fill-opacity="0.2"/>
<rect x="169.527" y="232.695" width="22.7504" height="22.7504" rx="5.09665" transform="rotate(-45 169.527 232.695)" fill="url(#paint44_radial_1312_1239)" fill-opacity="0.2"/>
<rect x="211.895" y="232.695" width="22.7504" height="22.7504" rx="5.09665" transform="rotate(-45 211.895 232.695)" fill="url(#paint45_radial_1312_1239)" fill-opacity="0.2"/>
<rect x="254.262" y="232.695" width="22.7504" height="22.7504" rx="5.09665" transform="rotate(-45 254.262 232.695)" fill="url(#paint46_radial_1312_1239)" fill-opacity="0.2"/>
<rect x="296.629" y="232.695" width="22.7504" height="22.7504" rx="5.09665" transform="rotate(-45 296.629 232.695)" fill="url(#paint47_radial_1312_1239)" fill-opacity="0.2"/>
<defs>
<radialGradient id="paint0_radial_1312_1239" cx="0" cy="0" r="1" gradientUnits="userSpaceOnUse" gradientTransform="translate(11.426 27.4621) rotate(85.3036) scale(21.8029)">
<stop stop-color="white"/>
<stop offset="1" stop-color="#FAFAFA"/>
</radialGradient>
<radialGradient id="paint1_radial_1312_1239" cx="0" cy="0" r="1" gradientUnits="userSpaceOnUse" gradientTransform="translate(53.801 27.4621) rotate(85.3036) scale(21.8029)">
<stop stop-color="white"/>
<stop offset="1" stop-color="#FAFAFA"/>
</radialGradient>
<radialGradient id="paint2_radial_1312_1239" cx="0" cy="0" r="1" gradientUnits="userSpaceOnUse" gradientTransform="translate(96.1604 27.4621) rotate(85.3036) scale(21.8029)">
<stop stop-color="white"/>
<stop offset="1" stop-color="#FAFAFA"/>
</radialGradient>
<radialGradient id="paint3_radial_1312_1239" cx="0" cy="0" r="1" gradientUnits="userSpaceOnUse" gradientTransform="translate(138.535 27.4621) rotate(85.3036) scale(21.8029)">
<stop stop-color="white"/>
<stop offset="1" stop-color="#FAFAFA"/>
</radialGradient>
<radialGradient id="paint4_radial_1312_1239" cx="0" cy="0" r="1" gradientUnits="userSpaceOnUse" gradientTransform="translate(180.903 27.4621) rotate(85.3036) scale(21.8029)">
<stop stop-color="white"/>
<stop offset="1" stop-color="#FAFAFA"/>
</radialGradient>
<radialGradient id="paint5_radial_1312_1239" cx="0" cy="0" r="1" gradientUnits="userSpaceOnUse" gradientTransform="translate(223.27 27.4621) rotate(85.3036) scale(21.8029)">
<stop stop-color="white"/>
<stop offset="1" stop-color="#FAFAFA"/>
</radialGradient>
<radialGradient id="paint6_radial_1312_1239" cx="0" cy="0" r="1" gradientUnits="userSpaceOnUse" gradientTransform="translate(265.637 27.4621) rotate(85.3036) scale(21.8029)">
<stop stop-color="white"/>
<stop offset="1" stop-color="#FAFAFA"/>
</radialGradient>
<radialGradient id="paint7_radial_1312_1239" cx="0" cy="0" r="1" gradientUnits="userSpaceOnUse" gradientTransform="translate(308.004 27.4621) rotate(85.3036) scale(21.8029)">
<stop stop-color="white"/>
<stop offset="1" stop-color="#FAFAFA"/>
</radialGradient>
<radialGradient id="paint8_radial_1312_1239" cx="0" cy="0" r="1" gradientUnits="userSpaceOnUse" gradientTransform="translate(11.426 114.105) rotate(85.3036) scale(21.8029)">
<stop stop-color="white"/>
<stop offset="1" stop-color="#FAFAFA"/>
</radialGradient>
<radialGradient id="paint9_radial_1312_1239" cx="0" cy="0" r="1" gradientUnits="userSpaceOnUse" gradientTransform="translate(53.801 114.105) rotate(85.3036) scale(21.8029)">
<stop stop-color="white"/>
<stop offset="1" stop-color="#FAFAFA"/>
</radialGradient>
<radialGradient id="paint10_radial_1312_1239" cx="0" cy="0" r="1" gradientUnits="userSpaceOnUse" gradientTransform="translate(96.1604 114.105) rotate(85.3036) scale(21.8029)">
<stop stop-color="white"/>
<stop offset="1" stop-color="#FAFAFA"/>
</radialGradient>
<radialGradient id="paint11_radial_1312_1239" cx="0" cy="0" r="1" gradientUnits="userSpaceOnUse" gradientTransform="translate(138.535 114.105) rotate(85.3036) scale(21.8029)">
<stop stop-color="white"/>
<stop offset="1" stop-color="#FAFAFA"/>
</radialGradient>
<radialGradient id="paint12_radial_1312_1239" cx="0" cy="0" r="1" gradientUnits="userSpaceOnUse" gradientTransform="translate(180.903 114.105) rotate(85.3036) scale(21.8029)">
<stop stop-color="white"/>
<stop offset="1" stop-color="#FAFAFA"/>
</radialGradient>
<radialGradient id="paint13_radial_1312_1239" cx="0" cy="0" r="1" gradientUnits="userSpaceOnUse" gradientTransform="translate(223.27 114.105) rotate(85.3036) scale(21.8029)">
<stop stop-color="white"/>
<stop offset="1" stop-color="#FAFAFA"/>
</radialGradient>
<radialGradient id="paint14_radial_1312_1239" cx="0" cy="0" r="1" gradientUnits="userSpaceOnUse" gradientTransform="translate(265.637 114.105) rotate(85.3036) scale(21.8029)">
<stop stop-color="white"/>
<stop offset="1" stop-color="#FAFAFA"/>
</radialGradient>
<radialGradient id="paint15_radial_1312_1239" cx="0" cy="0" r="1" gradientUnits="userSpaceOnUse" gradientTransform="translate(308.004 114.105) rotate(85.3036) scale(21.8029)">
<stop stop-color="white"/>
<stop offset="1" stop-color="#FAFAFA"/>
</radialGradient>
<radialGradient id="paint16_radial_1312_1239" cx="0" cy="0" r="1" gradientUnits="userSpaceOnUse" gradientTransform="translate(11.426 200.748) rotate(85.3036) scale(21.8029)">
<stop stop-color="white"/>
<stop offset="1" stop-color="#FAFAFA"/>
</radialGradient>
<radialGradient id="paint17_radial_1312_1239" cx="0" cy="0" r="1" gradientUnits="userSpaceOnUse" gradientTransform="translate(53.801 200.748) rotate(85.3036) scale(21.8029)">
<stop stop-color="white"/>
<stop offset="1" stop-color="#FAFAFA"/>
</radialGradient>
<radialGradient id="paint18_radial_1312_1239" cx="0" cy="0" r="1" gradientUnits="userSpaceOnUse" gradientTransform="translate(96.1604 200.748) rotate(85.3036) scale(21.8029)">
<stop stop-color="white"/>
<stop offset="1" stop-color="#FAFAFA"/>
</radialGradient>
<radialGradient id="paint19_radial_1312_1239" cx="0" cy="0" r="1" gradientUnits="userSpaceOnUse" gradientTransform="translate(138.535 200.748) rotate(85.3036) scale(21.8029)">
<stop stop-color="white"/>
<stop offset="1" stop-color="#FAFAFA"/>
</radialGradient>
<radialGradient id="paint20_radial_1312_1239" cx="0" cy="0" r="1" gradientUnits="userSpaceOnUse" gradientTransform="translate(180.903 200.748) rotate(85.3036) scale(21.8029)">
<stop stop-color="white"/>
<stop offset="1" stop-color="#FAFAFA"/>
</radialGradient>
<radialGradient id="paint21_radial_1312_1239" cx="0" cy="0" r="1" gradientUnits="userSpaceOnUse" gradientTransform="translate(223.27 200.748) rotate(85.3036) scale(21.8029)">
<stop stop-color="white"/>
<stop offset="1" stop-color="#FAFAFA"/>
</radialGradient>
<radialGradient id="paint22_radial_1312_1239" cx="0" cy="0" r="1" gradientUnits="userSpaceOnUse" gradientTransform="translate(265.637 200.748) rotate(85.3036) scale(21.8029)">
<stop stop-color="white"/>
<stop offset="1" stop-color="#FAFAFA"/>
</radialGradient>
<radialGradient id="paint23_radial_1312_1239" cx="0" cy="0" r="1" gradientUnits="userSpaceOnUse" gradientTransform="translate(308.004 200.748) rotate(85.3036) scale(21.8029)">
<stop stop-color="white"/>
<stop offset="1" stop-color="#FAFAFA"/>
</radialGradient>
<radialGradient id="paint24_radial_1312_1239" cx="0" cy="0" r="1" gradientUnits="userSpaceOnUse" gradientTransform="translate(11.426 70.7839) rotate(85.3036) scale(21.8029)">
<stop stop-color="white"/>
<stop offset="1" stop-color="#FAFAFA"/>
</radialGradient>
<radialGradient id="paint25_radial_1312_1239" cx="0" cy="0" r="1" gradientUnits="userSpaceOnUse" gradientTransform="translate(53.801 70.7839) rotate(85.3036) scale(21.8029)">
<stop stop-color="white"/>
<stop offset="1" stop-color="#FAFAFA"/>
</radialGradient>
<radialGradient id="paint26_radial_1312_1239" cx="0" cy="0" r="1" gradientUnits="userSpaceOnUse" gradientTransform="translate(96.1604 70.7839) rotate(85.3036) scale(21.8029)">
<stop stop-color="white"/>
<stop offset="1" stop-color="#FAFAFA"/>
</radialGradient>
<radialGradient id="paint27_radial_1312_1239" cx="0" cy="0" r="1" gradientUnits="userSpaceOnUse" gradientTransform="translate(138.535 70.7839) rotate(85.3036) scale(21.8029)">
<stop stop-color="white"/>
<stop offset="1" stop-color="#FAFAFA"/>
</radialGradient>
<radialGradient id="paint28_radial_1312_1239" cx="0" cy="0" r="1" gradientUnits="userSpaceOnUse" gradientTransform="translate(180.903 70.7839) rotate(85.3036) scale(21.8029)">
<stop stop-color="white"/>
<stop offset="1" stop-color="#FAFAFA"/>
</radialGradient>
<radialGradient id="paint29_radial_1312_1239" cx="0" cy="0" r="1" gradientUnits="userSpaceOnUse" gradientTransform="translate(223.27 70.7839) rotate(85.3036) scale(21.8029)">
<stop stop-color="white"/>
<stop offset="1" stop-color="#FAFAFA"/>
</radialGradient>
<radialGradient id="paint30_radial_1312_1239" cx="0" cy="0" r="1" gradientUnits="userSpaceOnUse" gradientTransform="translate(265.637 70.7839) rotate(85.3036) scale(21.8029)">
<stop stop-color="white"/>
<stop offset="1" stop-color="#FAFAFA"/>
</radialGradient>
<radialGradient id="paint31_radial_1312_1239" cx="0" cy="0" r="1" gradientUnits="userSpaceOnUse" gradientTransform="translate(308.004 70.7839) rotate(85.3036) scale(21.8029)">
<stop stop-color="white"/>
<stop offset="1" stop-color="#FAFAFA"/>
</radialGradient>
<radialGradient id="paint32_radial_1312_1239" cx="0" cy="0" r="1" gradientUnits="userSpaceOnUse" gradientTransform="translate(11.426 157.427) rotate(85.3036) scale(21.8029)">
<stop stop-color="white"/>
<stop offset="1" stop-color="#FAFAFA"/>
</radialGradient>
<radialGradient id="paint33_radial_1312_1239" cx="0" cy="0" r="1" gradientUnits="userSpaceOnUse" gradientTransform="translate(53.801 157.427) rotate(85.3036) scale(21.8029)">
<stop stop-color="white"/>
<stop offset="1" stop-color="#FAFAFA"/>
</radialGradient>
<radialGradient id="paint34_radial_1312_1239" cx="0" cy="0" r="1" gradientUnits="userSpaceOnUse" gradientTransform="translate(96.1604 157.427) rotate(85.3036) scale(21.8029)">
<stop stop-color="white"/>
<stop offset="1" stop-color="#FAFAFA"/>
</radialGradient>
<radialGradient id="paint35_radial_1312_1239" cx="0" cy="0" r="1" gradientUnits="userSpaceOnUse" gradientTransform="translate(138.535 157.427) rotate(85.3036) scale(21.8029)">
<stop stop-color="white"/>
<stop offset="1" stop-color="#FAFAFA"/>
</radialGradient>
<radialGradient id="paint36_radial_1312_1239" cx="0" cy="0" r="1" gradientUnits="userSpaceOnUse" gradientTransform="translate(180.903 157.427) rotate(85.3036) scale(21.8029)">
<stop stop-color="white"/>
<stop offset="1" stop-color="#FAFAFA"/>
</radialGradient>
<radialGradient id="paint37_radial_1312_1239" cx="0" cy="0" r="1" gradientUnits="userSpaceOnUse" gradientTransform="translate(223.27 157.427) rotate(85.3036) scale(21.8029)">
<stop stop-color="white"/>
<stop offset="1" stop-color="#FAFAFA"/>
</radialGradient>
<radialGradient id="paint38_radial_1312_1239" cx="0" cy="0" r="1" gradientUnits="userSpaceOnUse" gradientTransform="translate(265.637 157.427) rotate(85.3036) scale(21.8029)">
<stop stop-color="white"/>
<stop offset="1" stop-color="#FAFAFA"/>
</radialGradient>
<radialGradient id="paint39_radial_1312_1239" cx="0" cy="0" r="1" gradientUnits="userSpaceOnUse" gradientTransform="translate(308.004 157.427) rotate(85.3036) scale(21.8029)">
<stop stop-color="white"/>
<stop offset="1" stop-color="#FAFAFA"/>
</radialGradient>
<radialGradient id="paint40_radial_1312_1239" cx="0" cy="0" r="1" gradientUnits="userSpaceOnUse" gradientTransform="translate(11.426 244.07) rotate(85.3036) scale(21.8029)">
<stop stop-color="white"/>
<stop offset="1" stop-color="#FAFAFA"/>
</radialGradient>
<radialGradient id="paint41_radial_1312_1239" cx="0" cy="0" r="1" gradientUnits="userSpaceOnUse" gradientTransform="translate(53.801 244.07) rotate(85.3036) scale(21.8029)">
<stop stop-color="white"/>
<stop offset="1" stop-color="#FAFAFA"/>
</radialGradient>
<radialGradient id="paint42_radial_1312_1239" cx="0" cy="0" r="1" gradientUnits="userSpaceOnUse" gradientTransform="translate(96.1604 244.07) rotate(85.3036) scale(21.8029)">
<stop stop-color="white"/>
<stop offset="1" stop-color="#FAFAFA"/>
</radialGradient>
<radialGradient id="paint43_radial_1312_1239" cx="0" cy="0" r="1" gradientUnits="userSpaceOnUse" gradientTransform="translate(138.535 244.07) rotate(85.3036) scale(21.8029)">
<stop stop-color="white"/>
<stop offset="1" stop-color="#FAFAFA"/>
</radialGradient>
<radialGradient id="paint44_radial_1312_1239" cx="0" cy="0" r="1" gradientUnits="userSpaceOnUse" gradientTransform="translate(180.903 244.07) rotate(85.3036) scale(21.8029)">
<stop stop-color="white"/>
<stop offset="1" stop-color="#FAFAFA"/>
</radialGradient>
<radialGradient id="paint45_radial_1312_1239" cx="0" cy="0" r="1" gradientUnits="userSpaceOnUse" gradientTransform="translate(223.27 244.07) rotate(85.3036) scale(21.8029)">
<stop stop-color="white"/>
<stop offset="1" stop-color="#FAFAFA"/>
</radialGradient>
<radialGradient id="paint46_radial_1312_1239" cx="0" cy="0" r="1" gradientUnits="userSpaceOnUse" gradientTransform="translate(265.637 244.07) rotate(85.3036) scale(21.8029)">
<stop stop-color="white"/>
<stop offset="1" stop-color="#FAFAFA"/>
</radialGradient>
<radialGradient id="paint47_radial_1312_1239" cx="0" cy="0" r="1" gradientUnits="userSpaceOnUse" gradientTransform="translate(308.004 244.07) rotate(85.3036) scale(21.8029)">
<stop stop-color="white"/>
<stop offset="1" stop-color="#FAFAFA"/>
</radialGradient>
</defs>
</svg>
