<svg width="193" height="146" viewBox="0 0 193 146" fill="none" xmlns="http://www.w3.org/2000/svg">
<rect x="0.0507812" y="9.44092" width="13.3513" height="13.3513" rx="2.99102" transform="rotate(-45 0.0507812 9.44092)" fill="url(#paint0_radial_1312_1294)" fill-opacity="0.2"/>
<rect x="24.918" y="9.44092" width="13.3513" height="13.3513" rx="2.99102" transform="rotate(-45 24.918 9.44092)" fill="url(#paint1_radial_1312_1294)" fill-opacity="0.2"/>
<rect x="49.7773" y="9.44092" width="13.3513" height="13.3513" rx="2.99102" transform="rotate(-45 49.7773 9.44092)" fill="url(#paint2_radial_1312_1294)" fill-opacity="0.2"/>
<rect x="74.6445" y="9.44092" width="13.3513" height="13.3513" rx="2.99102" transform="rotate(-45 74.6445 9.44092)" fill="url(#paint3_radial_1312_1294)" fill-opacity="0.2"/>
<rect x="99.5078" y="9.44092" width="13.3513" height="13.3513" rx="2.99102" transform="rotate(-45 99.5078 9.44092)" fill="url(#paint4_radial_1312_1294)" fill-opacity="0.2"/>
<rect x="124.371" y="9.44092" width="13.3513" height="13.3513" rx="2.99102" transform="rotate(-45 124.371 9.44092)" fill="url(#paint5_radial_1312_1294)" fill-opacity="0.2"/>
<rect x="149.238" y="9.44092" width="13.3513" height="13.3513" rx="2.99102" transform="rotate(-45 149.238 9.44092)" fill="url(#paint6_radial_1312_1294)" fill-opacity="0.2"/>
<rect x="174.102" y="9.44092" width="13.3513" height="13.3513" rx="2.99102" transform="rotate(-45 174.102 9.44092)" fill="url(#paint7_radial_1312_1294)" fill-opacity="0.2"/>
<rect x="0.0507812" y="60.2876" width="13.3513" height="13.3513" rx="2.99102" transform="rotate(-45 0.0507812 60.2876)" fill="url(#paint8_radial_1312_1294)" fill-opacity="0.2"/>
<rect x="24.918" y="60.2876" width="13.3513" height="13.3513" rx="2.99102" transform="rotate(-45 24.918 60.2876)" fill="url(#paint9_radial_1312_1294)" fill-opacity="0.2"/>
<rect x="49.7773" y="60.2876" width="13.3513" height="13.3513" rx="2.99102" transform="rotate(-45 49.7773 60.2876)" fill="url(#paint10_radial_1312_1294)" fill-opacity="0.2"/>
<rect x="74.6445" y="60.2876" width="13.3513" height="13.3513" rx="2.99102" transform="rotate(-45 74.6445 60.2876)" fill="url(#paint11_radial_1312_1294)" fill-opacity="0.2"/>
<rect x="99.5078" y="60.2876" width="13.3513" height="13.3513" rx="2.99102" transform="rotate(-45 99.5078 60.2876)" fill="url(#paint12_radial_1312_1294)" fill-opacity="0.2"/>
<rect x="124.371" y="60.2876" width="13.3513" height="13.3513" rx="2.99102" transform="rotate(-45 124.371 60.2876)" fill="url(#paint13_radial_1312_1294)" fill-opacity="0.2"/>
<rect x="149.238" y="60.2876" width="13.3513" height="13.3513" rx="2.99102" transform="rotate(-45 149.238 60.2876)" fill="url(#paint14_radial_1312_1294)" fill-opacity="0.2"/>
<rect x="174.102" y="60.2876" width="13.3513" height="13.3513" rx="2.99102" transform="rotate(-45 174.102 60.2876)" fill="url(#paint15_radial_1312_1294)" fill-opacity="0.2"/>
<rect x="0.0507812" y="111.135" width="13.3513" height="13.3513" rx="2.99102" transform="rotate(-45 0.0507812 111.135)" fill="url(#paint16_radial_1312_1294)" fill-opacity="0.2"/>
<rect x="24.918" y="111.135" width="13.3513" height="13.3513" rx="2.99102" transform="rotate(-45 24.918 111.135)" fill="url(#paint17_radial_1312_1294)" fill-opacity="0.2"/>
<rect x="49.7773" y="111.135" width="13.3513" height="13.3513" rx="2.99102" transform="rotate(-45 49.7773 111.135)" fill="url(#paint18_radial_1312_1294)" fill-opacity="0.2"/>
<rect x="74.6445" y="111.135" width="13.3513" height="13.3513" rx="2.99102" transform="rotate(-45 74.6445 111.135)" fill="url(#paint19_radial_1312_1294)" fill-opacity="0.2"/>
<rect x="99.5078" y="111.135" width="13.3513" height="13.3513" rx="2.99102" transform="rotate(-45 99.5078 111.135)" fill="url(#paint20_radial_1312_1294)" fill-opacity="0.2"/>
<rect x="124.371" y="111.135" width="13.3513" height="13.3513" rx="2.99102" transform="rotate(-45 124.371 111.135)" fill="url(#paint21_radial_1312_1294)" fill-opacity="0.2"/>
<rect x="149.238" y="111.135" width="13.3513" height="13.3513" rx="2.99102" transform="rotate(-45 149.238 111.135)" fill="url(#paint22_radial_1312_1294)" fill-opacity="0.2"/>
<rect x="174.102" y="111.135" width="13.3513" height="13.3513" rx="2.99102" transform="rotate(-45 174.102 111.135)" fill="url(#paint23_radial_1312_1294)" fill-opacity="0.2"/>
<rect x="0.0507812" y="34.8647" width="13.3513" height="13.3513" rx="2.99102" transform="rotate(-45 0.0507812 34.8647)" fill="url(#paint24_radial_1312_1294)" fill-opacity="0.2"/>
<rect x="24.918" y="34.8647" width="13.3513" height="13.3513" rx="2.99102" transform="rotate(-45 24.918 34.8647)" fill="url(#paint25_radial_1312_1294)" fill-opacity="0.2"/>
<rect x="49.7773" y="34.8647" width="13.3513" height="13.3513" rx="2.99102" transform="rotate(-45 49.7773 34.8647)" fill="url(#paint26_radial_1312_1294)" fill-opacity="0.2"/>
<rect x="74.6445" y="34.8647" width="13.3513" height="13.3513" rx="2.99102" transform="rotate(-45 74.6445 34.8647)" fill="url(#paint27_radial_1312_1294)" fill-opacity="0.2"/>
<rect x="99.5078" y="34.8647" width="13.3513" height="13.3513" rx="2.99102" transform="rotate(-45 99.5078 34.8647)" fill="url(#paint28_radial_1312_1294)" fill-opacity="0.2"/>
<rect x="124.371" y="34.8647" width="13.3513" height="13.3513" rx="2.99102" transform="rotate(-45 124.371 34.8647)" fill="url(#paint29_radial_1312_1294)" fill-opacity="0.2"/>
<rect x="149.238" y="34.8647" width="13.3513" height="13.3513" rx="2.99102" transform="rotate(-45 149.238 34.8647)" fill="url(#paint30_radial_1312_1294)" fill-opacity="0.2"/>
<rect x="174.102" y="34.8647" width="13.3513" height="13.3513" rx="2.99102" transform="rotate(-45 174.102 34.8647)" fill="url(#paint31_radial_1312_1294)" fill-opacity="0.2"/>
<rect x="0.0507812" y="85.7114" width="13.3513" height="13.3513" rx="2.99102" transform="rotate(-45 0.0507812 85.7114)" fill="url(#paint32_radial_1312_1294)" fill-opacity="0.2"/>
<rect x="24.918" y="85.7114" width="13.3513" height="13.3513" rx="2.99102" transform="rotate(-45 24.918 85.7114)" fill="url(#paint33_radial_1312_1294)" fill-opacity="0.2"/>
<rect x="49.7773" y="85.7114" width="13.3513" height="13.3513" rx="2.99102" transform="rotate(-45 49.7773 85.7114)" fill="url(#paint34_radial_1312_1294)" fill-opacity="0.2"/>
<rect x="74.6445" y="85.7114" width="13.3513" height="13.3513" rx="2.99102" transform="rotate(-45 74.6445 85.7114)" fill="url(#paint35_radial_1312_1294)" fill-opacity="0.2"/>
<rect x="99.5078" y="85.7114" width="13.3513" height="13.3513" rx="2.99102" transform="rotate(-45 99.5078 85.7114)" fill="url(#paint36_radial_1312_1294)" fill-opacity="0.2"/>
<rect x="124.371" y="85.7114" width="13.3513" height="13.3513" rx="2.99102" transform="rotate(-45 124.371 85.7114)" fill="url(#paint37_radial_1312_1294)" fill-opacity="0.2"/>
<rect x="149.238" y="85.7114" width="13.3513" height="13.3513" rx="2.99102" transform="rotate(-45 149.238 85.7114)" fill="url(#paint38_radial_1312_1294)" fill-opacity="0.2"/>
<rect x="174.102" y="85.7114" width="13.3513" height="13.3513" rx="2.99102" transform="rotate(-45 174.102 85.7114)" fill="url(#paint39_radial_1312_1294)" fill-opacity="0.2"/>
<rect x="0.0507812" y="136.559" width="13.3513" height="13.3513" rx="2.99102" transform="rotate(-45 0.0507812 136.559)" fill="url(#paint40_radial_1312_1294)" fill-opacity="0.2"/>
<rect x="24.918" y="136.559" width="13.3513" height="13.3513" rx="2.99102" transform="rotate(-45 24.918 136.559)" fill="url(#paint41_radial_1312_1294)" fill-opacity="0.2"/>
<rect x="49.7773" y="136.559" width="13.3513" height="13.3513" rx="2.99102" transform="rotate(-45 49.7773 136.559)" fill="url(#paint42_radial_1312_1294)" fill-opacity="0.2"/>
<rect x="74.6445" y="136.559" width="13.3513" height="13.3513" rx="2.99102" transform="rotate(-45 74.6445 136.559)" fill="url(#paint43_radial_1312_1294)" fill-opacity="0.2"/>
<rect x="99.5078" y="136.559" width="13.3513" height="13.3513" rx="2.99102" transform="rotate(-45 99.5078 136.559)" fill="url(#paint44_radial_1312_1294)" fill-opacity="0.2"/>
<rect x="124.371" y="136.559" width="13.3513" height="13.3513" rx="2.99102" transform="rotate(-45 124.371 136.559)" fill="url(#paint45_radial_1312_1294)" fill-opacity="0.2"/>
<rect x="149.238" y="136.559" width="13.3513" height="13.3513" rx="2.99102" transform="rotate(-45 149.238 136.559)" fill="url(#paint46_radial_1312_1294)" fill-opacity="0.2"/>
<rect x="174.102" y="136.559" width="13.3513" height="13.3513" rx="2.99102" transform="rotate(-45 174.102 136.559)" fill="url(#paint47_radial_1312_1294)" fill-opacity="0.2"/>
<defs>
<radialGradient id="paint0_radial_1312_1294" cx="0" cy="0" r="1" gradientUnits="userSpaceOnUse" gradientTransform="translate(6.72643 16.1166) rotate(85.3036) scale(12.7953)">
<stop stop-color="white"/>
<stop offset="1" stop-color="#FAFAFA"/>
</radialGradient>
<radialGradient id="paint1_radial_1312_1294" cx="0" cy="0" r="1" gradientUnits="userSpaceOnUse" gradientTransform="translate(31.5936 16.1166) rotate(85.3036) scale(12.7953)">
<stop stop-color="white"/>
<stop offset="1" stop-color="#FAFAFA"/>
</radialGradient>
<radialGradient id="paint2_radial_1312_1294" cx="0" cy="0" r="1" gradientUnits="userSpaceOnUse" gradientTransform="translate(56.453 16.1166) rotate(85.3036) scale(12.7953)">
<stop stop-color="white"/>
<stop offset="1" stop-color="#FAFAFA"/>
</radialGradient>
<radialGradient id="paint3_radial_1312_1294" cx="0" cy="0" r="1" gradientUnits="userSpaceOnUse" gradientTransform="translate(81.3202 16.1166) rotate(85.3036) scale(12.7953)">
<stop stop-color="white"/>
<stop offset="1" stop-color="#FAFAFA"/>
</radialGradient>
<radialGradient id="paint4_radial_1312_1294" cx="0" cy="0" r="1" gradientUnits="userSpaceOnUse" gradientTransform="translate(106.183 16.1166) rotate(85.3036) scale(12.7953)">
<stop stop-color="white"/>
<stop offset="1" stop-color="#FAFAFA"/>
</radialGradient>
<radialGradient id="paint5_radial_1312_1294" cx="0" cy="0" r="1" gradientUnits="userSpaceOnUse" gradientTransform="translate(131.047 16.1166) rotate(85.3036) scale(12.7953)">
<stop stop-color="white"/>
<stop offset="1" stop-color="#FAFAFA"/>
</radialGradient>
<radialGradient id="paint6_radial_1312_1294" cx="0" cy="0" r="1" gradientUnits="userSpaceOnUse" gradientTransform="translate(155.914 16.1166) rotate(85.3036) scale(12.7953)">
<stop stop-color="white"/>
<stop offset="1" stop-color="#FAFAFA"/>
</radialGradient>
<radialGradient id="paint7_radial_1312_1294" cx="0" cy="0" r="1" gradientUnits="userSpaceOnUse" gradientTransform="translate(180.777 16.1166) rotate(85.3036) scale(12.7953)">
<stop stop-color="white"/>
<stop offset="1" stop-color="#FAFAFA"/>
</radialGradient>
<radialGradient id="paint8_radial_1312_1294" cx="0" cy="0" r="1" gradientUnits="userSpaceOnUse" gradientTransform="translate(6.72643 66.9633) rotate(85.3036) scale(12.7953)">
<stop stop-color="white"/>
<stop offset="1" stop-color="#FAFAFA"/>
</radialGradient>
<radialGradient id="paint9_radial_1312_1294" cx="0" cy="0" r="1" gradientUnits="userSpaceOnUse" gradientTransform="translate(31.5936 66.9633) rotate(85.3036) scale(12.7953)">
<stop stop-color="white"/>
<stop offset="1" stop-color="#FAFAFA"/>
</radialGradient>
<radialGradient id="paint10_radial_1312_1294" cx="0" cy="0" r="1" gradientUnits="userSpaceOnUse" gradientTransform="translate(56.453 66.9633) rotate(85.3036) scale(12.7953)">
<stop stop-color="white"/>
<stop offset="1" stop-color="#FAFAFA"/>
</radialGradient>
<radialGradient id="paint11_radial_1312_1294" cx="0" cy="0" r="1" gradientUnits="userSpaceOnUse" gradientTransform="translate(81.3202 66.9633) rotate(85.3036) scale(12.7953)">
<stop stop-color="white"/>
<stop offset="1" stop-color="#FAFAFA"/>
</radialGradient>
<radialGradient id="paint12_radial_1312_1294" cx="0" cy="0" r="1" gradientUnits="userSpaceOnUse" gradientTransform="translate(106.183 66.9633) rotate(85.3036) scale(12.7953)">
<stop stop-color="white"/>
<stop offset="1" stop-color="#FAFAFA"/>
</radialGradient>
<radialGradient id="paint13_radial_1312_1294" cx="0" cy="0" r="1" gradientUnits="userSpaceOnUse" gradientTransform="translate(131.047 66.9633) rotate(85.3036) scale(12.7953)">
<stop stop-color="white"/>
<stop offset="1" stop-color="#FAFAFA"/>
</radialGradient>
<radialGradient id="paint14_radial_1312_1294" cx="0" cy="0" r="1" gradientUnits="userSpaceOnUse" gradientTransform="translate(155.914 66.9633) rotate(85.3036) scale(12.7953)">
<stop stop-color="white"/>
<stop offset="1" stop-color="#FAFAFA"/>
</radialGradient>
<radialGradient id="paint15_radial_1312_1294" cx="0" cy="0" r="1" gradientUnits="userSpaceOnUse" gradientTransform="translate(180.777 66.9633) rotate(85.3036) scale(12.7953)">
<stop stop-color="white"/>
<stop offset="1" stop-color="#FAFAFA"/>
</radialGradient>
<radialGradient id="paint16_radial_1312_1294" cx="0" cy="0" r="1" gradientUnits="userSpaceOnUse" gradientTransform="translate(6.72643 117.81) rotate(85.3036) scale(12.7953)">
<stop stop-color="white"/>
<stop offset="1" stop-color="#FAFAFA"/>
</radialGradient>
<radialGradient id="paint17_radial_1312_1294" cx="0" cy="0" r="1" gradientUnits="userSpaceOnUse" gradientTransform="translate(31.5936 117.81) rotate(85.3036) scale(12.7953)">
<stop stop-color="white"/>
<stop offset="1" stop-color="#FAFAFA"/>
</radialGradient>
<radialGradient id="paint18_radial_1312_1294" cx="0" cy="0" r="1" gradientUnits="userSpaceOnUse" gradientTransform="translate(56.453 117.81) rotate(85.3036) scale(12.7953)">
<stop stop-color="white"/>
<stop offset="1" stop-color="#FAFAFA"/>
</radialGradient>
<radialGradient id="paint19_radial_1312_1294" cx="0" cy="0" r="1" gradientUnits="userSpaceOnUse" gradientTransform="translate(81.3202 117.81) rotate(85.3036) scale(12.7953)">
<stop stop-color="white"/>
<stop offset="1" stop-color="#FAFAFA"/>
</radialGradient>
<radialGradient id="paint20_radial_1312_1294" cx="0" cy="0" r="1" gradientUnits="userSpaceOnUse" gradientTransform="translate(106.183 117.81) rotate(85.3036) scale(12.7953)">
<stop stop-color="white"/>
<stop offset="1" stop-color="#FAFAFA"/>
</radialGradient>
<radialGradient id="paint21_radial_1312_1294" cx="0" cy="0" r="1" gradientUnits="userSpaceOnUse" gradientTransform="translate(131.047 117.81) rotate(85.3036) scale(12.7953)">
<stop stop-color="white"/>
<stop offset="1" stop-color="#FAFAFA"/>
</radialGradient>
<radialGradient id="paint22_radial_1312_1294" cx="0" cy="0" r="1" gradientUnits="userSpaceOnUse" gradientTransform="translate(155.914 117.81) rotate(85.3036) scale(12.7953)">
<stop stop-color="white"/>
<stop offset="1" stop-color="#FAFAFA"/>
</radialGradient>
<radialGradient id="paint23_radial_1312_1294" cx="0" cy="0" r="1" gradientUnits="userSpaceOnUse" gradientTransform="translate(180.777 117.81) rotate(85.3036) scale(12.7953)">
<stop stop-color="white"/>
<stop offset="1" stop-color="#FAFAFA"/>
</radialGradient>
<radialGradient id="paint24_radial_1312_1294" cx="0" cy="0" r="1" gradientUnits="userSpaceOnUse" gradientTransform="translate(6.72643 41.5404) rotate(85.3036) scale(12.7953)">
<stop stop-color="white"/>
<stop offset="1" stop-color="#FAFAFA"/>
</radialGradient>
<radialGradient id="paint25_radial_1312_1294" cx="0" cy="0" r="1" gradientUnits="userSpaceOnUse" gradientTransform="translate(31.5936 41.5404) rotate(85.3036) scale(12.7953)">
<stop stop-color="white"/>
<stop offset="1" stop-color="#FAFAFA"/>
</radialGradient>
<radialGradient id="paint26_radial_1312_1294" cx="0" cy="0" r="1" gradientUnits="userSpaceOnUse" gradientTransform="translate(56.453 41.5404) rotate(85.3036) scale(12.7953)">
<stop stop-color="white"/>
<stop offset="1" stop-color="#FAFAFA"/>
</radialGradient>
<radialGradient id="paint27_radial_1312_1294" cx="0" cy="0" r="1" gradientUnits="userSpaceOnUse" gradientTransform="translate(81.3202 41.5404) rotate(85.3036) scale(12.7953)">
<stop stop-color="white"/>
<stop offset="1" stop-color="#FAFAFA"/>
</radialGradient>
<radialGradient id="paint28_radial_1312_1294" cx="0" cy="0" r="1" gradientUnits="userSpaceOnUse" gradientTransform="translate(106.183 41.5404) rotate(85.3036) scale(12.7953)">
<stop stop-color="white"/>
<stop offset="1" stop-color="#FAFAFA"/>
</radialGradient>
<radialGradient id="paint29_radial_1312_1294" cx="0" cy="0" r="1" gradientUnits="userSpaceOnUse" gradientTransform="translate(131.047 41.5404) rotate(85.3036) scale(12.7953)">
<stop stop-color="white"/>
<stop offset="1" stop-color="#FAFAFA"/>
</radialGradient>
<radialGradient id="paint30_radial_1312_1294" cx="0" cy="0" r="1" gradientUnits="userSpaceOnUse" gradientTransform="translate(155.914 41.5404) rotate(85.3036) scale(12.7953)">
<stop stop-color="white"/>
<stop offset="1" stop-color="#FAFAFA"/>
</radialGradient>
<radialGradient id="paint31_radial_1312_1294" cx="0" cy="0" r="1" gradientUnits="userSpaceOnUse" gradientTransform="translate(180.777 41.5404) rotate(85.3036) scale(12.7953)">
<stop stop-color="white"/>
<stop offset="1" stop-color="#FAFAFA"/>
</radialGradient>
<radialGradient id="paint32_radial_1312_1294" cx="0" cy="0" r="1" gradientUnits="userSpaceOnUse" gradientTransform="translate(6.72643 92.3871) rotate(85.3036) scale(12.7953)">
<stop stop-color="white"/>
<stop offset="1" stop-color="#FAFAFA"/>
</radialGradient>
<radialGradient id="paint33_radial_1312_1294" cx="0" cy="0" r="1" gradientUnits="userSpaceOnUse" gradientTransform="translate(31.5936 92.3871) rotate(85.3036) scale(12.7953)">
<stop stop-color="white"/>
<stop offset="1" stop-color="#FAFAFA"/>
</radialGradient>
<radialGradient id="paint34_radial_1312_1294" cx="0" cy="0" r="1" gradientUnits="userSpaceOnUse" gradientTransform="translate(56.453 92.3871) rotate(85.3036) scale(12.7953)">
<stop stop-color="white"/>
<stop offset="1" stop-color="#FAFAFA"/>
</radialGradient>
<radialGradient id="paint35_radial_1312_1294" cx="0" cy="0" r="1" gradientUnits="userSpaceOnUse" gradientTransform="translate(81.3202 92.3871) rotate(85.3036) scale(12.7953)">
<stop stop-color="white"/>
<stop offset="1" stop-color="#FAFAFA"/>
</radialGradient>
<radialGradient id="paint36_radial_1312_1294" cx="0" cy="0" r="1" gradientUnits="userSpaceOnUse" gradientTransform="translate(106.183 92.3871) rotate(85.3036) scale(12.7953)">
<stop stop-color="white"/>
<stop offset="1" stop-color="#FAFAFA"/>
</radialGradient>
<radialGradient id="paint37_radial_1312_1294" cx="0" cy="0" r="1" gradientUnits="userSpaceOnUse" gradientTransform="translate(131.047 92.3871) rotate(85.3036) scale(12.7953)">
<stop stop-color="white"/>
<stop offset="1" stop-color="#FAFAFA"/>
</radialGradient>
<radialGradient id="paint38_radial_1312_1294" cx="0" cy="0" r="1" gradientUnits="userSpaceOnUse" gradientTransform="translate(155.914 92.3871) rotate(85.3036) scale(12.7953)">
<stop stop-color="white"/>
<stop offset="1" stop-color="#FAFAFA"/>
</radialGradient>
<radialGradient id="paint39_radial_1312_1294" cx="0" cy="0" r="1" gradientUnits="userSpaceOnUse" gradientTransform="translate(180.777 92.3871) rotate(85.3036) scale(12.7953)">
<stop stop-color="white"/>
<stop offset="1" stop-color="#FAFAFA"/>
</radialGradient>
<radialGradient id="paint40_radial_1312_1294" cx="0" cy="0" r="1" gradientUnits="userSpaceOnUse" gradientTransform="translate(6.72643 143.234) rotate(85.3036) scale(12.7953)">
<stop stop-color="white"/>
<stop offset="1" stop-color="#FAFAFA"/>
</radialGradient>
<radialGradient id="paint41_radial_1312_1294" cx="0" cy="0" r="1" gradientUnits="userSpaceOnUse" gradientTransform="translate(31.5936 143.234) rotate(85.3036) scale(12.7953)">
<stop stop-color="white"/>
<stop offset="1" stop-color="#FAFAFA"/>
</radialGradient>
<radialGradient id="paint42_radial_1312_1294" cx="0" cy="0" r="1" gradientUnits="userSpaceOnUse" gradientTransform="translate(56.453 143.234) rotate(85.3036) scale(12.7953)">
<stop stop-color="white"/>
<stop offset="1" stop-color="#FAFAFA"/>
</radialGradient>
<radialGradient id="paint43_radial_1312_1294" cx="0" cy="0" r="1" gradientUnits="userSpaceOnUse" gradientTransform="translate(81.3202 143.234) rotate(85.3036) scale(12.7953)">
<stop stop-color="white"/>
<stop offset="1" stop-color="#FAFAFA"/>
</radialGradient>
<radialGradient id="paint44_radial_1312_1294" cx="0" cy="0" r="1" gradientUnits="userSpaceOnUse" gradientTransform="translate(106.183 143.234) rotate(85.3036) scale(12.7953)">
<stop stop-color="white"/>
<stop offset="1" stop-color="#FAFAFA"/>
</radialGradient>
<radialGradient id="paint45_radial_1312_1294" cx="0" cy="0" r="1" gradientUnits="userSpaceOnUse" gradientTransform="translate(131.047 143.234) rotate(85.3036) scale(12.7953)">
<stop stop-color="white"/>
<stop offset="1" stop-color="#FAFAFA"/>
</radialGradient>
<radialGradient id="paint46_radial_1312_1294" cx="0" cy="0" r="1" gradientUnits="userSpaceOnUse" gradientTransform="translate(155.914 143.234) rotate(85.3036) scale(12.7953)">
<stop stop-color="white"/>
<stop offset="1" stop-color="#FAFAFA"/>
</radialGradient>
<radialGradient id="paint47_radial_1312_1294" cx="0" cy="0" r="1" gradientUnits="userSpaceOnUse" gradientTransform="translate(180.777 143.234) rotate(85.3036) scale(12.7953)">
<stop stop-color="white"/>
<stop offset="1" stop-color="#FAFAFA"/>
</radialGradient>
</defs>
</svg>
