<svg width="116" height="42" viewBox="0 0 116 42" fill="none" xmlns="http://www.w3.org/2000/svg">
<mask id="mask0_878_432" style="mask-type:alpha" maskUnits="userSpaceOnUse" x="0" y="0" width="47" height="42">
<path d="M26.1322 18.4414H21.4206C21.4206 18.4414 20.7476 21.4304 23.7764 21.4304C26.8053 21.4304 26.1322 18.4414 26.1322 18.4414Z" fill="#3E3E3E"/>
<path d="M32.4155 21.2367C32.4155 21.2367 33.8355 27.3424 38.8052 26.1258C42.673 25.179 39.5152 17.0997 42 14.4671C43.2744 13.117 45.5498 13.715 45.5498 13.715" stroke="#212121" stroke-width="2.31081" stroke-linecap="round"/>
<path d="M15.1343 21.2367C15.1343 21.2367 13.7144 27.3424 8.74461 26.1258C4.87679 25.179 8.03465 17.0997 5.54978 14.4671C4.27545 13.117 1.99997 13.715 1.99997 13.715" stroke="#3E3E3E" stroke-width="2.31081" stroke-linecap="round"/>
<path d="M14.5668 15.4504C14.5668 15.4504 12.6822 1.99994 23.6135 2C34.5449 2.00006 33.0369 15.4504 33.0369 15.4504" stroke="#3E3E3E" stroke-width="2.31081" stroke-linecap="round"/>
<path d="M31.8894 15.308C31.8108 15.9412 32.2604 16.5183 32.8936 16.597C33.5269 16.6756 34.104 16.226 34.1826 15.5927L31.8894 15.308ZM23.7749 3.15541C26.2495 3.15542 27.9079 3.90763 29.0544 4.95478C30.2244 6.02335 30.9543 7.48543 31.3927 9.03899C31.8303 10.5896 31.9573 12.1617 31.9708 13.3618C31.9776 13.958 31.9562 14.4533 31.9335 14.7962C31.9222 14.9674 31.9106 15.1001 31.9021 15.1877C31.8978 15.2314 31.8944 15.2639 31.8921 15.2842C31.891 15.2944 31.8902 15.3015 31.8897 15.3055C31.8895 15.3075 31.8893 15.3087 31.8893 15.3091C31.8892 15.3094 31.8892 15.3094 31.8893 15.3092C31.8893 15.3091 31.8893 15.3088 31.8893 15.3087C31.8893 15.3084 31.8894 15.308 33.036 15.4504C34.1826 15.5927 34.1827 15.5922 34.1827 15.5917C34.1828 15.5914 34.1828 15.5908 34.1829 15.5903C34.183 15.5893 34.1832 15.5881 34.1833 15.5867C34.1837 15.5838 34.1841 15.5802 34.1847 15.5757C34.1857 15.5668 34.1871 15.5546 34.1888 15.5393C34.1922 15.5088 34.1968 15.4657 34.2021 15.411C34.2127 15.3015 34.2263 15.1452 34.2393 14.9487C34.2653 14.556 34.289 14.0005 34.2815 13.3357C34.2666 12.0139 34.128 10.2234 33.6167 8.41143C33.1062 6.6024 32.2041 4.70189 30.6128 3.24852C28.998 1.77371 26.766 0.844609 23.7749 0.844593L23.7749 3.15541Z" fill="#212121"/>
<path d="M23.7749 25.2886V40" stroke="#3E3E3E" stroke-width="2.31081" stroke-linecap="round"/>
<path d="M29.1792 23.2915C29.1792 23.2915 27.323 35.9946 34.3766 35.9946C41.4303 35.9946 40.6878 29.4506 40.6878 29.4506" stroke="#212121" stroke-width="2.31081" stroke-linecap="round"/>
<path d="M18.3706 23.2915C18.3706 23.2915 20.2268 35.9946 13.1732 35.9946C6.11952 35.9946 6.86201 29.4506 6.86201 29.4506" stroke="#3E3E3E" stroke-width="2.31081" stroke-linecap="round"/>
<ellipse cx="28.2707" cy="16.5692" rx="1.38256" ry="1.49449" fill="#212121"/>
<ellipse cx="19.2825" cy="16.5692" rx="1.38256" ry="1.49449" fill="#3E3E3E"/>
</mask>
<g mask="url(#mask0_878_432)">
<rect x="-0.791504" y="-1.62061" width="24.5918" height="45.3017" fill="#FF474D"/>
<rect x="23.8022" y="-1.62061" width="24.5918" height="45.3017" fill="#D61414"/>
</g>
<path d="M63.6831 16.9819V19.1958H60.3957V26.3381C60.3957 26.9882 60.5111 27.4538 60.7418 27.7349C60.9889 27.9985 61.3597 28.1391 61.854 28.1566C62.3484 28.1566 62.9581 28.1391 63.6831 28.1039V30.1596C61.7881 30.4232 60.404 30.2563 59.5306 29.6589C58.6738 29.0615 58.2453 27.9546 58.2453 26.3381V19.1958H55.7983V16.9819H58.2453V13.9774L60.3957 13.2922V16.9819H63.6831Z" fill="#3E3E3E"/>
<path d="M67.3165 14.5836C66.9046 14.5836 66.5585 14.4342 66.2784 14.1355C65.9983 13.8368 65.8582 13.4767 65.8582 13.055C65.8582 12.6333 65.9983 12.2731 66.2784 11.9744C66.5585 11.6581 66.9046 11.5 67.3165 11.5C67.712 11.5 68.0498 11.6581 68.3299 11.9744C68.6101 12.2731 68.7501 12.6333 68.7501 13.055C68.7501 13.4767 68.6101 13.8368 68.3299 14.1355C68.0498 14.4342 67.712 14.5836 67.3165 14.5836ZM68.3794 30.1596H66.229V16.9819H68.3794V30.1596Z" fill="#3E3E3E"/>
<path d="M77.8145 16.6393C79.2646 16.6393 80.4263 17.1313 81.2997 18.1152C82.173 19.0816 82.6097 20.3994 82.6097 22.0685V30.1596H80.4593V22.2003C80.4593 21.1461 80.1874 20.3203 79.6436 19.7229C79.0998 19.1255 78.3501 18.8268 77.3944 18.8268C76.2903 18.8268 75.417 19.1958 74.7743 19.9337C74.1317 20.6541 73.8104 21.7347 73.8104 23.1755V30.1596H71.66V16.9819H73.8104V18.8795C74.6672 17.386 76.002 16.6393 77.8145 16.6393Z" fill="#3E3E3E"/>
<path d="M90.2131 27.7086L94.0937 16.9819H96.4171L91.4737 30.1596H88.9525L84.0091 16.9819H86.3325L90.2131 27.7086Z" fill="#3E3E3E"/>
<path d="M99.3233 14.5836C98.9113 14.5836 98.5653 14.4342 98.2852 14.1355C98.005 13.8368 97.865 13.4767 97.865 13.055C97.865 12.6333 98.005 12.2731 98.2852 11.9744C98.5653 11.6581 98.9113 11.5 99.3233 11.5C99.7188 11.5 100.057 11.6581 100.337 11.9744C100.617 12.2731 100.757 12.6333 100.757 13.055C100.757 13.4767 100.617 13.8368 100.337 14.1355C100.057 14.4342 99.7188 14.5836 99.3233 14.5836ZM100.386 30.1596H98.2357V16.9819H100.386V30.1596Z" fill="#3E3E3E"/>
<path d="M114.097 28.4993C112.845 29.8346 111.304 30.5023 109.475 30.5023C107.646 30.5023 106.105 29.8346 104.853 28.4993C103.601 27.1639 102.975 25.5211 102.975 23.5708C102.975 21.6205 103.601 19.9777 104.853 18.6423C106.105 17.307 107.646 16.6393 109.475 16.6393C111.304 16.6393 112.845 17.307 114.097 18.6423C115.366 19.9952 116.001 21.6381 116.001 23.5708C116.001 25.5035 115.366 27.1463 114.097 28.4993ZM109.475 28.2621C110.711 28.2621 111.749 27.814 112.59 26.9179C113.43 26.0218 113.85 24.9061 113.85 23.5708C113.85 22.2354 113.43 21.1197 112.59 20.2236C111.749 19.3276 110.711 18.8795 109.475 18.8795C108.256 18.8795 107.226 19.3276 106.386 20.2236C105.545 21.1197 105.125 22.2354 105.125 23.5708C105.125 24.9061 105.545 26.0218 106.386 26.9179C107.226 27.814 108.256 28.2621 109.475 28.2621Z" fill="#3E3E3E"/>
<path d="M90.2131 27.7086L94.0937 16.9819H96.4171L91.4737 30.1596H88.9525L84.0091 16.9819H86.3325L90.2131 27.7086Z" fill="#212121"/>
<path d="M99.3233 14.5836C98.9113 14.5836 98.5653 14.4342 98.2852 14.1355C98.005 13.8368 97.865 13.4767 97.865 13.055C97.865 12.6333 98.005 12.2731 98.2852 11.9744C98.5653 11.6581 98.9113 11.5 99.3233 11.5C99.7188 11.5 100.057 11.6581 100.337 11.9744C100.617 12.2731 100.757 12.6333 100.757 13.055C100.757 13.4767 100.617 13.8368 100.337 14.1355C100.057 14.4342 99.7188 14.5836 99.3233 14.5836ZM100.386 30.1596H98.2357V16.9819H100.386V30.1596Z" fill="#212121"/>
<path d="M114.097 28.4993C112.845 29.8346 111.304 30.5023 109.475 30.5023C107.646 30.5023 106.105 29.8346 104.853 28.4993C103.601 27.1639 102.975 25.5211 102.975 23.5708C102.975 21.6205 103.601 19.9777 104.853 18.6423C106.105 17.307 107.646 16.6393 109.475 16.6393C111.304 16.6393 112.845 17.307 114.097 18.6423C115.366 19.9952 116.001 21.6381 116.001 23.5708C116.001 25.5035 115.366 27.1463 114.097 28.4993ZM109.475 28.2621C110.711 28.2621 111.749 27.814 112.59 26.9179C113.43 26.0218 113.85 24.9061 113.85 23.5708C113.85 22.2354 113.43 21.1197 112.59 20.2236C111.749 19.3276 110.711 18.8795 109.475 18.8795C108.256 18.8795 107.226 19.3276 106.386 20.2236C105.545 21.1197 105.125 22.2354 105.125 23.5708C105.125 24.9061 105.545 26.0218 106.386 26.9179C107.226 27.814 108.256 28.2621 109.475 28.2621Z" fill="#212121"/>
<ellipse cx="99.4369" cy="13.1472" rx="1.54482" ry="1.64721" fill="#D61414"/>
<ellipse cx="67.3861" cy="13.1472" rx="1.54482" ry="1.64721" fill="#FF474D"/>
</svg>
